<?xml version="1.0" standalone="no"?>
<!DOCTYPE svg PUBLIC "-//W3C//DTD SVG 20010904//EN"
 "http://www.w3.org/TR/2001/REC-SVG-20010904/DTD/svg10.dtd">
<svg version="1.0" xmlns="http://www.w3.org/2000/svg"
 width="512.000000pt" height="512.000000pt" viewBox="0 0 512.000000 512.000000"
 preserveAspectRatio="xMidYMid meet">

<g transform="translate(0.000000,512.000000) scale(0.100000,-0.100000)"
fill="#000000" stroke="none">
<path d="M857 3515 c-158 -124 -289 -225 -292 -225 -3 0 -5 92 -5 205 l0 205
-150 0 -150 0 0 -327 -1 -328 -129 -100 -130 -100 0 -732 0 -733 560 0 560 0
0 808 0 807 142 110 c77 61 187 146 244 191 l103 81 -196 154 c-109 85 -213
166 -233 181 l-37 27 -286 -224z m-147 -1500 l0 -225 -150 0 -150 0 0 225 0
225 150 0 150 0 0 -225z"/>
<path d="M1988 3293 l-568 -445 0 -734 0 -734 300 0 300 0 0 420 0 420 540 0
540 0 0 -420 0 -420 300 0 300 0 0 734 0 734 -569 446 c-313 245 -571 446
-573 445 -2 0 -258 -201 -570 -446z"/>
<path d="M3750 3563 c-124 -96 -228 -178 -232 -181 -3 -4 104 -92 238 -197
l244 -190 0 -807 0 -808 560 0 560 0 0 733 0 732 -562 440 c-308 242 -566 443
-572 447 -7 4 -109 -69 -236 -169z m960 -1548 l0 -225 -150 0 -150 0 0 225 0
225 150 0 150 0 0 -225z"/>
<path d="M2320 1650 l0 -270 240 0 240 0 0 270 0 270 -240 0 -240 0 0 -270z"/>
</g>
</svg>
